<?xml version="1.0" encoding="UTF-8"?>
<svg version="1.1" xmlns="http://www.w3.org/2000/svg" width="462" height="112">
<path d="M0 0 C152.46 0 304.92 0 462 0 C462 36.96 462 73.92 462 112 C309.54 112 157.08 112 0 112 C0 75.04 0 38.08 0 0 Z " fill="#FEFEFE" transform="translate(0,0)"/>
<path d="M0 0 C5.94 0 11.88 0 18 0 C20.15364798 4.67183902 22.30505316 9.34459996 24.45141602 14.01977539 C25.17840533 15.60170798 25.90654964 17.18311043 26.63598633 18.76391602 C27.69936357 21.06900085 28.75821696 23.37612341 29.81640625 25.68359375 C30.13025772 26.36143417 30.44410919 27.0392746 30.76747131 27.73765564 C34.42468646 35.73635619 37.64250782 43.84609042 41 52 C41.33 34.84 41.66 17.68 42 0 C46.29 0 50.58 0 55 0 C55 25.41 55 50.82 55 77 C49.06 77 43.12 77 37 77 C34.2060229 70.71974976 31.41266587 64.43922423 28.61987305 58.15844727 C27.67049759 56.02360656 26.72095529 53.88884004 25.77124023 51.75415039 C24.40303968 48.67874515 23.03544722 45.60307012 21.66796875 42.52734375 C21.03498116 41.10505714 21.03498116 41.10505714 20.38920593 39.65403748 C19.98901749 38.75363235 19.58882904 37.85322723 19.17651367 36.92553711 C18.82787766 36.14166122 18.47924164 35.35778534 18.12004089 34.55015564 C16.72586473 31.37583743 15.36571448 28.18666711 14 25 C13.67 42.16 13.34 59.32 13 77 C8.71 77 4.42 77 0 77 C0 51.59 0 26.18 0 0 Z " fill="#000000" transform="translate(142,14)"/>
<path d="M0 0 C4.62 0 9.24 0 14 0 C14.01458252 1.66498535 14.02916504 3.3299707 14.04418945 5.04541016 C14.10220949 11.22922117 14.17944325 17.41266948 14.26245117 23.59619141 C14.29732002 26.27136214 14.32371881 28.94623638 14.34643555 31.62158203 C14.38001267 35.46937788 14.43233279 39.31653489 14.48828125 43.1640625 C14.49467117 44.35802643 14.5010611 45.55199036 14.50764465 46.78213501 C14.61193653 54.81793163 14.61193653 54.81793163 18 62 C21.67050007 65.23867653 25.13748436 65.46918667 29.8515625 65.28125 C32.93603555 64.87746444 34.6661568 64.05927341 37 62 C41.017696 56.19005742 40.47537844 49.95428834 40.51171875 43.1640625 C40.52966995 41.92957367 40.54762115 40.69508484 40.56611633 39.42318726 C40.62018431 35.49049263 40.65410502 31.55791917 40.6875 27.625 C40.71904465 24.95438118 40.75516579 22.28384861 40.79101562 19.61328125 C40.87590937 13.07560828 40.94273818 6.53797103 41 0 C45.62 0 50.24 0 55 0 C55.07447304 7.64971823 55.12875537 15.29922271 55.16479492 22.94921875 C55.17982831 25.54854003 55.20026046 28.14783617 55.22631836 30.74707031 C55.26294101 34.49550605 55.27978152 38.24360472 55.29296875 41.9921875 C55.30845261 43.14363251 55.32393646 44.29507751 55.33988953 45.48141479 C55.34173655 54.45099288 54.26667259 63.18317423 48.5859375 70.46484375 C41.44443026 77.37768204 32.94505354 78.38124353 23.42578125 78.2734375 C16.58483752 77.72741006 10.31482967 75.89942078 5.5 70.8125 C-0.2761167 62.62268843 -0.4164806 54.183077 -0.29296875 44.43359375 C-0.28872391 43.15895767 -0.28447906 41.88432159 -0.28010559 40.57106018 C-0.26623423 37.21224507 -0.23936858 33.85406301 -0.20599365 30.49542236 C-0.17508729 27.05624812 -0.16155672 23.617008 -0.14648438 20.17773438 C-0.1135248 13.45162826 -0.06179855 6.72590046 0 0 Z " fill="#4B5563" transform="translate(330,14)"/>
<path d="M0 0 C5.28 0 10.56 0 16 0 C21.76009919 19.22502561 26.93305321 38.58333536 32 58 C33.61193764 55.00200516 34.65600157 52.07495584 35.58813477 48.80419922 C35.88506729 47.76987762 36.18199982 46.73555603 36.4879303 45.66989136 C36.95990089 44.00411545 36.95990089 44.00411545 37.44140625 42.3046875 C37.76914536 41.1608963 38.09688446 40.0171051 38.43455505 38.83865356 C39.48091322 35.18515118 40.52203762 31.53018539 41.5625 27.875 C42.60721113 24.21287369 43.65304729 20.55107832 44.70115662 16.8899231 C45.35325275 14.61129943 46.00326026 12.33207684 46.65101624 10.05221558 C46.9447966 9.0241983 47.23857697 7.99618103 47.54125977 6.93701172 C47.79948013 6.02974335 48.0577005 5.12247498 48.32374573 4.18771362 C49 2 49 2 50 0 C54.95 0 59.9 0 65 0 C63.58138517 7.92758068 61.43487492 15.43164295 58.97265625 23.09375 C58.37724502 24.96947738 57.78183419 26.84520488 57.18644619 28.72093964 C56.3587009 31.32393743 55.52599896 33.92533933 54.69342041 36.52679443 C53.44129995 40.44280512 52.1961188 44.36102638 50.95034695 48.27906036 C49.97988009 51.33100927 49.00795071 54.38247156 48.03297424 57.4329834 C45.95698746 63.93725531 43.94105466 70.45414763 42 77 C35.4 77 28.8 77 22 77 C19.72116705 69.41906373 17.44315749 61.83788144 15.16652298 54.25628471 C14.10890612 50.73434683 13.05095473 47.21251022 11.9921875 43.69091797 C10.96688788 40.28059547 9.94253398 36.86999013 8.9187851 33.45920181 C8.34567872 31.55064485 7.77163947 29.64236808 7.1975708 27.73410034 C6.12472455 24.15809621 5.05958041 20.57995644 4 17 C3.80993881 16.3597715 3.61987762 15.719543 3.42405701 15.05991364 C2.85459201 13.13521317 2.29195847 11.20849565 1.72949219 9.28173828 C1.39729675 8.14793732 1.06510132 7.01413635 0.72283936 5.84597778 C0 3 0 3 0 0 Z " fill="#000000" transform="translate(11,14)"/>
<path d="M0 0 C16.17 0 32.34 0 49 0 C49 3.96 49 7.92 49 12 C43.39 12 37.78 12 32 12 C32 29.49 32 46.98 32 65 C37.61 65 43.22 65 49 65 C49 68.96 49 72.92 49 77 C32.83 77 16.66 77 0 77 C0 73.04 0 69.08 0 65 C5.61 65 11.22 65 17 65 C17 47.51 17 30.02 17 12 C11.39 12 5.78 12 0 12 C0 8.04 0 4.08 0 0 Z " fill="#4B5563" transform="translate(397,14)"/>
<path d="M0 0 C16.17 0 32.34 0 49 0 C49 3.96 49 7.92 49 12 C43.39 12 37.78 12 32 12 C32 29.49 32 46.98 32 65 C37.61 65 43.22 65 49 65 C49 68.96 49 72.92 49 77 C32.83 77 16.66 77 0 77 C0 73.04 0 69.08 0 65 C5.61 65 11.22 65 17 65 C17 47.51 17 30.02 17 12 C11.39 12 5.78 12 0 12 C0 8.04 0 4.08 0 0 Z " fill="#000000" transform="translate(271,14)"/>
<path d="M0 0 C16.17 0 32.34 0 49 0 C49 3.96 49 7.92 49 12 C43.39 12 37.78 12 32 12 C32 29.49 32 46.98 32 65 C37.61 65 43.22 65 49 65 C49 68.96 49 72.92 49 77 C32.83 77 16.66 77 0 77 C0 73.04 0 69.08 0 65 C5.61 65 11.22 65 17 65 C17 47.51 17 30.02 17 12 C11.39 12 5.78 12 0 12 C0 8.04 0 4.08 0 0 Z " fill="#000000" transform="translate(82,14)"/>
<path d="M0 0 C1 1 1 1 1.09765625 4.16015625 C1.08605469 5.44792969 1.07445312 6.73570313 1.0625 8.0625 C1.05347656 9.35285156 1.04445313 10.64320312 1.03515625 11.97265625 C1.02355469 12.97167969 1.01195312 13.97070312 1 15 C0.26136719 14.7834375 -0.47726562 14.566875 -1.23828125 14.34375 C-9.57051249 12.05688602 -18.04429144 10.08327808 -26.375 13.375 C-31.72760845 16.43049312 -33.76828349 22.24993317 -35.61328125 27.8671875 C-37.4574427 38.03801729 -36.57706931 48.99563366 -31.25 57.9375 C-26.30934936 62.46642975 -21.37372937 63.54240494 -14.84375 63.37109375 C-9.33977311 62.65285501 -4.2412303 60.78424861 1 59 C1 63.29 1 67.58 1 72 C-10.38259931 77.18912615 -21.48006709 79.37877952 -33.7578125 75.03125 C-42.16207902 71.16587306 -47.67755178 64.94196187 -51.03515625 56.3515625 C-54.56261203 44.37461963 -54.48355381 30.68441296 -50 19 C-49.59974609 17.92878906 -49.59974609 17.92878906 -49.19140625 16.8359375 C-45.64083332 8.66172959 -39.34800047 3.02304224 -31.17578125 -0.30859375 C-21.2459119 -3.46404595 -9.91742584 -2.90683171 0 0 Z " fill="#000000" transform="translate(257,15)"/>
</svg>
